 <svg version="1.0" xmlns="http://www.w3.org/2000/svg" width="700.000000pt" height="700.000000pt" viewBox="0 0 700.000000 700.000000" preserveAspectRatio="xMidYMid meet">
<metadata>
Created by potrace 1.12, written by Peter Selinger 2001-2015
</metadata>
<g transform="translate(0.000000,700.000000) scale(0.100000,-0.100000)" fill="#5e4d42ff" stroke="none">
<path d="M3306 6989 c-859 -48 -1667 -410 -2276 -1019 -578 -577 -934 -1337
-1010 -2150 -15 -160 -15 -480 0 -640 97 -1044 659 -1993 1525 -2576 1506
-1014 3539 -709 4674 701 703 874 942 2004 655 3103 -165 636 -552 1263 -1046
1699 -705 621 -1599 934 -2522 882z m568 -914 c586 -92 1087 -350 1491 -766
393 -405 631 -895 716 -1474 18 -120 18 -539 1 -665 -82 -589 -330 -1088 -747
-1506 -413 -414 -903 -657 -1500 -745 -120 -18 -539 -18 -665 -1 -458 64 -870
233 -1235 506 -159 119 -395 356 -514 515 -51 68 -91 125 -89 126 2 2 155 62
341 134 186 72 351 138 366 146 16 8 49 37 75 66 50 55 76 123 76 195 0 59
-34 163 -73 220 -60 91 -194 147 -297 125 -26 -6 -212 -74 -411 -151 -199 -77
-366 -137 -370 -133 -22 22 -95 324 -120 498 -18 121 -18 549 0 670 69 470
233 868 504 1228 435 578 1095 950 1821 1027 121 13 514 4 630 -15z"></path>
<path d="M3380 3798 c-75 -29 -150 -105 -179 -183 -46 -122 -10 -270 86 -354
161 -143 416 -88 507 108 16 35 21 66 21 131 0 73 -4 93 -28 142 -73 148 -250
216 -407 156z"></path>
</g>
</svg>
